<svg width="513" height="555" viewBox="0 0 513 555" fill="none" xmlns="http://www.w3.org/2000/svg">
<path d="M137.505 6.00336C125.088 17.5324 109.441 72.2771 103.527 90.5666C94.2891 119.136 86.5378 142.38 74.8436 169.938C65.5131 191.913 61.6837 227.294 41.588 241.528C28.5107 250.796 5.05016 254.429 1.71635 274.257C-1.79293 295.137 3.6259 316.688 15.4852 333.894C20.1298 340.634 34.0327 352.431 35.1371 359.408C39.2656 385.429 20.4601 413.08 24.3513 439.502C27.0864 458.122 37.4904 466.968 56.0586 459.103C61.6218 456.749 66.4935 448.988 74.0075 452.776C84.6695 464.181 72.2839 479.343 85.2476 489.933C91.3269 494.908 98.7583 495.155 106.324 493.163C116.738 490.428 121.507 474.296 134.181 478.104C138.785 479.488 166.374 512.444 174.063 518.926C203.5 543.759 246.943 562.781 285.514 551.18C302.998 545.926 330.009 523.642 343.623 510.865C351.313 503.65 373.225 476.04 380.657 473.656C396.675 468.526 397.253 489.747 403.281 496.394C408.927 502.628 418.175 502.628 424.894 498.51C439.592 489.499 434.545 459.041 441.47 456.935C450.739 454.107 459.894 482.914 478.008 469.775C488.288 462.313 488.123 443.239 487.359 431.782C485.532 404.554 467.057 375.695 484.335 349.902C499.879 326.689 518.107 320.961 511.129 287.127C506.691 265.597 486.874 259.28 474.334 244.872C458.459 226.634 447.209 196.217 437.012 174.129C418.526 134.061 416.255 96.1712 400.143 56.1757C396.727 47.7018 381.441 13.8683 376.6 8.74886C369.509 1.25552 361.799 0.667199 353.398 6.34397C339.443 15.7881 322.661 67.2506 313.764 84.4564C307.684 96.2125 299.035 113.418 284.667 115.049C272.942 116.38 227.322 116.556 217.64 112.654C204.718 107.452 197.328 77.283 192.146 65.5682C188.74 57.8788 183.456 51.1286 180.246 43.5939C175.477 32.3849 174.579 18.1001 166.673 8.77982C158.767 -0.540405 146.918 -2.75951 137.495 5.98272L137.505 6.00336ZM363.337 71.8333C378.541 75.6006 384.765 117.402 382.287 130.335C379.924 142.7 360.488 130.51 353.8 126.63C338.783 117.898 338.06 118.403 342.436 100.217C344.377 92.1768 352.933 69.2529 363.337 71.823V71.8333ZM159.138 75.1774C164.506 80.3175 172.34 110.859 170.1 118.362C166.57 130.18 132.901 147.52 129.196 134.897C126.182 124.669 133.521 85.9117 140.901 77.9126C145.07 73.4022 154.453 70.6876 159.138 75.1774ZM295.144 392.344C294.235 352.049 313.454 274.071 356.546 259.394C390.483 247.834 411.538 283.928 414.418 312.745C418.319 351.75 407.936 387.07 384.61 418.003C361.387 448.781 319.337 500.585 285.535 517.367C242.515 538.732 203.562 515.003 176.623 480.881C136.999 430.688 93.0299 379.452 98.1183 310.877C101.287 268.188 137.928 229.854 174.889 269.808C202.922 300.112 214.895 352.183 217.661 392.344C218.91 393.799 235.083 382.601 238.17 381.403C257.367 373.92 269.196 378.658 285.999 387.782C289.033 389.433 290.561 393.5 295.133 392.344H295.144Z" fill="white"/>
<path d="M295.148 392.343C290.575 393.499 289.048 389.432 286.013 387.781C269.21 378.657 257.382 373.919 238.184 381.402C235.098 382.6 218.924 393.809 217.675 392.343C214.909 352.182 202.946 300.111 174.903 269.807C137.942 229.853 101.301 268.187 98.1326 310.876C93.0338 379.452 137.013 430.687 176.637 480.88C203.576 515.003 242.519 538.732 285.549 517.366C319.351 500.584 361.401 448.791 384.624 418.002C407.961 387.069 418.334 351.749 414.432 312.744C411.553 283.927 390.497 247.833 356.56 259.393C313.468 274.07 294.25 352.048 295.158 392.343H295.148ZM344.03 289.439C354.217 290.987 357.644 317.048 358.108 325.471C358.686 335.906 357.375 378.141 342.822 378.822C331.83 379.328 328.042 357.88 327.392 349.695C326.525 338.672 325.121 286.569 344.03 289.439ZM166.419 289.428C169.598 290.027 171.157 291.916 172.829 294.455C181.86 308.131 181.653 358.602 172.808 372.547C165.304 384.375 157.15 378.017 153.022 367.437C146.571 350.923 146.932 313.88 154.405 297.747C156.872 292.421 159.535 288.128 166.419 289.428Z" fill="black"/>
<path d="M159.134 75.1738C154.438 70.684 145.066 73.3985 140.896 77.909C133.506 85.9081 126.178 124.665 129.192 134.893C132.907 147.517 166.566 130.177 170.095 118.359C172.335 110.855 164.501 80.3139 159.134 75.1738Z" fill="black"/>
<path d="M363.338 71.8395C352.934 69.2592 344.378 92.183 342.437 100.234C338.051 118.42 338.783 117.914 353.801 126.646C360.489 130.537 379.925 142.717 382.288 130.352C384.765 117.409 378.542 75.6069 363.338 71.8499V71.8395Z" fill="black"/>
<path d="M166.411 289.424C159.517 288.113 156.864 292.407 154.397 297.743C146.914 313.875 146.563 350.929 153.014 367.433C157.143 378.012 165.297 384.37 172.8 372.542C181.656 358.598 181.863 308.126 172.821 294.45C171.149 291.911 169.59 290.033 166.411 289.424Z" fill="white"/>
<path d="M344.023 289.445C325.114 286.576 326.507 338.678 327.384 349.702C328.035 357.886 331.823 379.334 342.815 378.829C357.378 378.158 358.679 335.912 358.101 325.477C357.636 317.065 354.21 290.993 344.023 289.445Z" fill="white"/>
<path d="M287.075 432.498L266.04 465.496C262.882 468.2 258.629 475.239 254.108 474.527L224.125 436.503L226.54 432.498H287.085H287.075Z" fill="white"/>
</svg>
